<svg width="18" height="18" viewBox="0 0 18 18" fill="none" xmlns="http://www.w3.org/2000/svg">
<path d="M9.00031 5.0625C8.69126 5.0625 8.44066 5.33227 8.44066 5.66497V12.335C8.44066 12.6677 8.69126 12.9375 9.00031 12.9375C9.30936 12.9375 9.55996 12.6677 9.55996 12.335V5.66497C9.55934 5.33227 9.30936 5.0625 9.00031 5.0625Z" fill="white"/>
<path d="M6.18465 6.77554C5.8756 6.77554 5.625 7.04531 5.625 7.37801V10.622C5.625 10.9547 5.8756 11.2245 6.18465 11.2245C6.4937 11.2245 6.7443 10.9547 6.7443 10.622V7.37801C6.7443 7.04531 6.4937 6.77554 6.18465 6.77554Z" fill="white"/>
<path d="M11.2557 7.37801C11.2557 7.04531 11.5063 6.77554 11.8153 6.77554C12.1244 6.77554 12.375 7.04531 12.375 7.37801V10.622C12.375 10.9547 12.1244 11.2245 11.8153 11.2245C11.5063 11.2245 11.2557 10.9547 11.2557 10.622V7.37801Z" fill="white"/>
<path d="M4.21275 16.5134C6.12696 17.4753 9.06166 18.363 11.14 17.8493C13.2183 17.3356 15.0468 16.0956 16.2984 14.3512C17.5499 12.6068 18.1428 10.4718 17.9709 8.32838C17.799 6.18495 16.8735 4.17293 15.3601 2.65238C13.8467 1.13183 11.8441 0.201996 9.71073 0.0292726C7.57737 -0.143451 5.45245 0.452211 3.71623 1.70966C1.98002 2.96711 0.745833 4.80428 0.234533 6.8924C-0.276766 8.98051 0.0742324 11.394 1.03162 13.3173L0.249963 17.0047C0.170272 17.3807 0.526833 17.7023 0.892577 17.5843L4.21275 16.5134ZM2.59684 13.6491C2.67172 13.2958 2.62489 12.9275 2.46396 12.6043C1.65617 10.9815 1.37694 8.95423 1.78862 7.27293C2.20999 5.55209 3.22669 4.03977 4.65474 3.0055C6.08262 1.97136 7.82905 1.48216 9.58162 1.62405C11.3342 1.76595 12.9807 2.5299 14.226 3.78108C15.4715 5.03243 16.2343 6.68954 16.376 8.4563C16.5177 10.2231 16.0289 11.9821 14.9983 13.4185C13.968 14.8546 12.4638 15.8739 10.756 16.296C10.0597 16.4682 9.08503 16.426 7.96674 16.1739C6.87366 15.9274 5.78404 15.5123 4.93115 15.0838C4.55582 14.8952 4.12138 14.8617 3.72161 14.9907L2.20904 15.4785L2.59684 13.6491Z" fill="white"/>
</svg>
