<svg width="23" height="18" viewBox="0 0 23 18" fill="none" xmlns="http://www.w3.org/2000/svg">
<path d="M8.5718 10.6683C7.46238 10.6683 6.39839 11.1078 5.61391 11.8899C4.82943 12.6721 4.38871 13.733 4.38871 14.8392L4.38871 16.5075C4.38871 16.9682 4.76328 17.3417 5.22533 17.3417C5.68738 17.3417 6.06195 16.9682 6.06195 16.5075V14.8392C6.06195 14.1755 6.32638 13.5389 6.79707 13.0696C7.26775 12.6003 7.90615 12.3367 8.5718 12.3367H14.4281C15.0938 12.3367 15.7322 12.6003 16.2028 13.0696C16.6735 13.5389 16.938 14.1755 16.938 14.8392V16.5075C16.938 16.9682 17.3125 17.3417 17.7746 17.3417C18.2366 17.3417 18.6112 16.9682 18.6112 16.5075V14.8392C18.6112 13.733 18.1705 12.6721 17.386 11.8899C16.6015 11.1078 15.5375 10.6683 14.4281 10.6683H8.5718Z" fill="#76878F"/>
<path d="M18.1873 11.9163H18.4922C19.074 11.9163 19.632 12.1467 20.0434 12.5569C20.4548 12.9671 20.6859 13.5234 20.6859 14.1035V15.5617C20.6859 15.9643 21.0133 16.2908 21.4171 16.2908C21.8209 16.2908 22.1483 15.9643 22.1483 15.5617V14.1035C22.1483 13.1367 21.7631 12.2095 21.0775 11.5259C20.3918 10.8422 19.4619 10.4581 18.4922 10.4581L16.2792 10.4581C16.8412 10.6944 17.3581 11.0383 17.7979 11.4769C17.9374 11.6159 18.0673 11.7627 18.1873 11.9163Z" fill="#76878F"/>
<path d="M6.72076 10.4581L4.50771 10.4581C3.53806 10.4581 2.60812 10.8422 1.92247 11.5259C1.23682 12.2095 0.851624 13.1367 0.851624 14.1035L0.851624 15.5617C0.851624 15.9643 1.179 16.2908 1.58284 16.2908C1.98668 16.2908 2.31406 15.9643 2.31406 15.5617L2.31406 14.1035C2.31406 13.5234 2.54518 12.9671 2.95657 12.5569C3.36796 12.1467 3.92592 11.9163 4.50771 11.9163H4.81259C4.93259 11.7627 5.06255 11.6159 5.20204 11.4769C5.64186 11.0383 6.15869 10.6944 6.72076 10.4581Z" fill="#76878F"/>
<path d="M11.5 0.658325C9.18971 0.658325 7.31688 2.52567 7.31688 4.82916C7.31688 7.13265 9.18971 8.99999 11.5 8.99999C13.8102 8.99999 15.683 7.13265 15.683 4.82916C15.683 2.52567 13.8102 0.658325 11.5 0.658325ZM8.99011 4.82916C8.99011 3.44707 10.1138 2.32666 11.5 2.32666C12.8861 2.32666 14.0098 3.44707 14.0098 4.82916C14.0098 6.21125 12.8861 7.33166 11.5 7.33166C10.1138 7.33166 8.99011 6.21125 8.99011 4.82916Z" fill="#76878F"/>
<path d="M14.3489 8.64098C14.8281 8.87106 15.3654 8.99999 15.933 8.99999C17.9522 8.99999 19.589 7.3679 19.589 5.35461C19.589 3.34132 17.9522 1.70923 15.933 1.70923C15.6696 1.70923 15.4128 1.73699 15.1652 1.78973C15.5051 2.19703 15.7781 2.66192 15.9672 3.16764C17.163 3.18591 18.1266 4.15805 18.1266 5.35461C18.1266 6.56258 17.1445 7.54184 15.933 7.54184C15.7675 7.54184 15.6063 7.52357 15.4513 7.48894C15.1509 7.9319 14.7777 8.3216 14.3489 8.64098Z" fill="#76878F"/>
<path d="M7.54866 7.48894C7.39366 7.52357 7.23246 7.54184 7.06698 7.54184C5.85546 7.54184 4.87333 6.56258 4.87333 5.35461C4.87333 4.15806 5.83697 3.18592 7.03268 3.16764C7.22181 2.66192 7.49478 2.19703 7.83468 1.78973C7.58714 1.73698 7.33031 1.70923 7.06698 1.70923C5.04778 1.70923 3.41089 3.34132 3.41089 5.35461C3.41089 7.3679 5.04778 8.99999 7.06698 8.99999C7.6345 8.99999 8.17181 8.87107 8.65107 8.64098C8.2222 8.3216 7.84898 7.9319 7.54866 7.48894Z" fill="#76878F"/>
</svg>
