<svg width="16" height="18" viewBox="0 0 16 18" fill="none" xmlns="http://www.w3.org/2000/svg">
<path d="M7.99986 0C6.83011 0 5.87995 0.969983 5.87995 2.16412V2.84112C3.90791 3.68803 2.51719 5.678 2.51719 8.00007V9.72134C2.51719 10.6351 2.27351 11.5328 1.81299 12.3171L0.658336 14.2819C0.45164 14.6336 0.447536 15.07 0.644722 15.425C0.840645 15.7777 1.20747 16.0002 1.61059 16.0002H14.3891C14.7898 16.0002 15.1577 15.78 15.3547 15.4274C15.5547 15.0695 15.546 14.6309 15.3424 14.2831L14.1872 12.3174C13.7262 11.5334 13.4826 10.6353 13.4826 9.72134V8.00007C13.4826 5.678 12.0918 3.68803 10.1198 2.84112V2.16412C10.1198 0.969982 9.1696 0 7.99986 0ZM7.42952 2.16412C7.42952 1.84363 7.68592 1.58189 7.99986 1.58189C8.31379 1.58189 8.57019 1.84363 8.57019 2.16412V3.98567L9.12314 4.15436C10.7478 4.64998 11.933 6.18765 11.933 8.00007V9.72134C11.933 10.922 12.253 12.1016 12.8586 13.1315L13.6148 14.4183H2.38521L3.14201 13.1305C3.74674 12.1008 4.06676 10.9221 4.06676 9.72134V8.00007C4.06676 6.18765 5.25191 4.64998 6.87657 4.15436L7.42952 3.98567V2.16412Z" fill="white"/>
<path d="M8.00007 18C7.00186 18 6.145 17.3978 5.74025 16.5348H10.2599C9.85518 17.3978 8.99828 18 8.00007 18Z" fill="white"/>
</svg>
