<svg width="19" height="20" viewBox="0 0 19 20" fill="none" xmlns="http://www.w3.org/2000/svg">
<path d="M13.0558 14.9672C11.4504 16.2133 9.43045 16.8008 7.40714 16.6101C5.38383 16.4194 3.50924 15.4648 2.16495 13.9406C0.820666 12.4164 0.107731 10.4373 0.171268 8.40601C0.234804 6.37472 1.07004 4.44399 2.50695 3.00683C3.94411 1.56991 5.87484 0.734682 7.90613 0.671146C9.93741 0.607609 11.9166 1.32054 13.4407 2.66483C14.9649 4.00911 15.9195 5.8837 16.1102 7.90701C16.3009 9.93032 15.7134 11.9503 14.4673 13.5557L18.5153 17.6037C18.6468 17.7258 18.7429 17.881 18.7935 18.0532C18.8441 18.2253 18.8474 18.4078 18.8029 18.5816C18.7585 18.7554 18.668 18.914 18.541 19.0407C18.414 19.1674 18.2551 19.2575 18.0812 19.3015C17.9076 19.346 17.7252 19.3429 17.5532 19.2925C17.3812 19.2421 17.226 19.1463 17.1038 19.0152L13.0558 14.9672ZM14.1477 8.65543C14.1595 7.86128 14.0134 7.07269 13.7176 6.33556C13.4219 5.59842 12.9826 4.92745 12.4252 4.36166C11.8677 3.79588 11.2034 3.34658 10.4707 3.0399C9.7381 2.73323 8.95179 2.57529 8.15755 2.57529C7.36331 2.57529 6.57699 2.73323 5.84435 3.0399C5.1117 3.34658 4.44735 3.79588 3.88994 4.36166C3.33253 4.92745 2.89318 5.59842 2.59746 6.33556C2.30174 7.07269 2.15555 7.86128 2.16739 8.65543C2.19085 10.2287 2.83227 11.7295 3.95309 12.8337C5.07391 13.938 6.58415 14.5569 8.15755 14.5569C9.73094 14.5569 11.2412 13.938 12.362 12.8337C13.4828 11.7295 14.1242 10.2287 14.1477 8.65543Z" fill="#76878F"/>
</svg>
